<svg viewBox="0 0 64 64" width="256" height="256" xmlns="http://www.w3.org/2000/svg"><path d="M32 0C14.327 0 0 14.327 0 32c0 15.11 10.476 27.766 24.56 31.121a32.463 32.463 0 0 1-2.16-.59V55.2s-1.2.4-2.8.4c-4.476 0-6.336-3.994-6.8-6-.282-1.222-1.018-2.38-1.808-3.088-.944-.842-1.386-.844-1.392-1.132-.012-.605.81-.58 1.2-.58 2 0 3.516 2.128 4.22 3.228 1.744 2.717 3.616 3.172 4.58 3.172 1.2 0 2.236-.18 2.95-.524.33-2.324 1.364-4.394 3.05-5.876-7.504-1.5-12.8-5.804-12.8-12.8 0-3.604 1.446-6.916 3.856-9.59C16.41 21.712 16 20.3 16 18c0-1.52.106-3.386.8-5.2 0 0 4.564.032 8.868 4.108A22.624 22.624 0 0 1 32 16c2.22 0 4.346.33 6.332.908C42.636 12.832 47.2 12.8 47.2 12.8c.698 1.814.8 3.68.8 5.2 0 2.48-.33 3.926-.532 4.55C49.804 25.2 51.2 28.46 51.2 32c0 6.996-5.296 11.3-12.8 12.8 2.004 1.76 3.2 4.324 3.2 7.2v10.532c-.709.222-1.43.416-2.16.59C53.524 59.765 64 47.11 64 32 64 14.327 49.673 0 32 0Zm2.231 63.914zm4.89-.719zM32 64Zm-2.722-.123z" style="stroke-width:1.23077"/></svg>